<svg width="60" height="53" viewBox="0 0 60 53" fill="none" xmlns="http://www.w3.org/2000/svg">
<g opacity="0.75">
<mask id="path-1-inside-1" fill="white">
<path d="M54.1762 3.58976C47.7544 -1.88279 38.2038 -0.898436 32.3094 5.18348L30.0009 7.56234L27.6923 5.18348C21.8096 -0.898436 12.2473 -1.88279 5.82554 3.58976C-1.53369 9.87089 -1.9204 21.1441 4.66541 27.9526L27.3408 51.3662C28.8056 52.8779 31.1844 52.8779 32.6492 51.3662L55.3246 27.9526C61.9221 21.1441 61.5354 9.87089 54.1762 3.58976Z"/>
</mask>
<path d="M54.1762 3.58976C47.7544 -1.88279 38.2038 -0.898436 32.3094 5.18348L30.0009 7.56234L27.6923 5.18348C21.8096 -0.898436 12.2473 -1.88279 5.82554 3.58976C-1.53369 9.87089 -1.9204 21.1441 4.66541 27.9526L27.3408 51.3662C28.8056 52.8779 31.1844 52.8779 32.6492 51.3662L55.3246 27.9526C61.9221 21.1441 61.5354 9.87089 54.1762 3.58976Z" fill="#FF1563" stroke="#EBEBEB" stroke-width="6" mask="url(#path-1-inside-1)"/>
</g>
</svg>
