<svg width="62" height="42" viewBox="0 0 62 42" fill="none" xmlns="http://www.w3.org/2000/svg">
<path d="M12.0089 23.3957C12.0089 19.289 11.8098 8.72369 13.0045 6.53347C14.4978 3.79569 17.4222 4.6668 23.1467 7.77791C24.5778 8.55569 40.6933 17.049 42.1867 17.8579C43.3703 18.499 46.0445 20.969 42.7467 23.7068C42.5871 23.8393 40.5067 25.8223 39.2 26.2579" stroke="#59D0A5" stroke-width="2.48889" stroke-linecap="round"/>
<path d="M15.1573 35.6533C14.1244 35.6533 13.2284 35.4916 12.4693 35.168C11.7226 34.8444 11.1502 34.4213 10.752 33.8986C10.3537 33.3636 10.1422 32.791 10.1173 32.1813C10.1173 32.0817 10.1546 31.9946 10.2293 31.92C10.3164 31.8329 10.416 31.7893 10.528 31.7893H11.48C11.7164 31.7893 11.8782 31.9137 11.9653 32.1626C12.0773 32.6853 12.3946 33.1333 12.9173 33.5066C13.4524 33.88 14.1991 34.0666 15.1573 34.0666C16.1902 34.0666 16.968 33.8862 17.4906 33.5253C18.0133 33.152 18.2746 32.6356 18.2746 31.976C18.2746 31.5529 18.144 31.2106 17.8826 30.9493C17.6337 30.688 17.2604 30.4577 16.7626 30.2586C16.2649 30.0596 15.5182 29.8106 14.5226 29.512C13.552 29.2382 12.7804 28.9457 12.208 28.6346C11.6356 28.3236 11.2062 27.9377 10.92 27.4773C10.6337 27.0169 10.4906 26.4382 10.4906 25.7413C10.4906 25.0693 10.6711 24.4657 11.032 23.9306C11.4053 23.3956 11.9342 22.9786 12.6186 22.68C13.3031 22.3689 14.1182 22.2133 15.064 22.2133C16.0346 22.2133 16.8684 22.3876 17.5653 22.736C18.2622 23.072 18.7911 23.5013 19.152 24.024C19.5129 24.5466 19.7057 25.0693 19.7306 25.592C19.7306 25.6916 19.6933 25.7786 19.6186 25.8533C19.5564 25.928 19.4631 25.9653 19.3386 25.9653H18.3493C18.088 25.9653 17.9262 25.847 17.864 25.6106C17.7893 25.088 17.4969 24.6586 16.9866 24.3226C16.4764 23.9742 15.8356 23.8 15.064 23.8C14.2177 23.8 13.552 23.9617 13.0666 24.2853C12.5813 24.6089 12.3386 25.088 12.3386 25.7226C12.3386 26.1457 12.4506 26.4942 12.6746 26.768C12.9111 27.0417 13.2657 27.2844 13.7386 27.496C14.2116 27.695 14.9022 27.9253 15.8106 28.1866C16.8684 28.4729 17.7022 28.7716 18.312 29.0826C18.9217 29.3813 19.376 29.7609 19.6746 30.2213C19.9733 30.6693 20.1226 31.2417 20.1226 31.9386C20.1226 33.096 19.6746 34.0044 18.7786 34.664C17.8826 35.3236 16.6756 35.6533 15.1573 35.6533ZM22.7746 35.4666C22.6502 35.4666 22.5444 35.4293 22.4573 35.3546C22.3826 35.2676 22.3453 35.1617 22.3453 35.0373V22.6426C22.3453 22.5182 22.3826 22.4186 22.4573 22.344C22.5444 22.2569 22.6502 22.2133 22.7746 22.2133H23.6519C23.7764 22.2133 23.8759 22.2569 23.9506 22.344C24.0377 22.4186 24.0813 22.5182 24.0813 22.6426V35.0373C24.0813 35.1617 24.0377 35.2676 23.9506 35.3546C23.8759 35.4293 23.7764 35.4666 23.6519 35.4666H22.7746ZM27.1457 23.9493C27.0213 23.9493 26.9154 23.912 26.8284 23.8373C26.7537 23.7502 26.7164 23.6444 26.7164 23.52V22.512C26.7164 22.3876 26.7537 22.2817 26.8284 22.1946C26.9154 22.1076 27.0213 22.064 27.1457 22.064H28.3217C28.4461 22.064 28.552 22.1076 28.639 22.1946C28.7261 22.2817 28.7697 22.3876 28.7697 22.512V23.52C28.7697 23.6444 28.7261 23.7502 28.639 23.8373C28.552 23.912 28.4461 23.9493 28.3217 23.9493H27.1457ZM27.295 35.4666C27.1706 35.4666 27.0648 35.4293 26.9777 35.3546C26.903 35.2676 26.8657 35.1617 26.8657 35.0373V26.1893C26.8657 26.0649 26.903 25.9653 26.9777 25.8906C27.0648 25.8036 27.1706 25.76 27.295 25.76H28.191C28.3154 25.76 28.415 25.8036 28.4897 25.8906C28.5768 25.9653 28.6204 26.0649 28.6204 26.1893V35.0373C28.6204 35.1617 28.5768 35.2676 28.4897 35.3546C28.415 35.4293 28.3154 35.4666 28.191 35.4666H27.295ZM34.9331 35.6533C33.639 35.6533 32.6621 35.2302 32.0025 34.384C31.343 33.5377 30.9945 32.4676 30.9571 31.1733L30.9385 30.6133L30.9571 30.0533C30.9945 28.7716 31.343 27.7076 32.0025 26.8613C32.6621 26.0026 33.639 25.5733 34.9331 25.5733C36.215 25.5733 37.223 26.0276 37.9571 26.936V22.6426C37.9571 22.5182 37.9945 22.4186 38.0691 22.344C38.1563 22.2569 38.2621 22.2133 38.3865 22.2133H39.2825C39.407 22.2133 39.5065 22.2569 39.5812 22.344C39.6683 22.4186 39.7118 22.5182 39.7118 22.6426V35.0373C39.7118 35.1617 39.6683 35.2676 39.5812 35.3546C39.5065 35.4293 39.407 35.4666 39.2825 35.4666H38.4425C38.3181 35.4666 38.2123 35.4293 38.1251 35.3546C38.0505 35.2676 38.0132 35.1617 38.0132 35.0373V34.2533C37.2914 35.1866 36.2647 35.6533 34.9331 35.6533ZM35.3251 34.1413C36.1838 34.1413 36.8247 33.8613 37.2478 33.3013C37.6834 32.7289 37.9198 32.0506 37.9571 31.2666C37.9697 31.1297 37.9758 30.8933 37.9758 30.5573C37.9758 30.2089 37.9697 29.9662 37.9571 29.8293C37.9323 29.095 37.6958 28.4542 37.2478 27.9066C36.7998 27.359 36.159 27.0853 35.3251 27.0853C34.4417 27.0853 33.7945 27.359 33.3838 27.9066C32.9857 28.4542 32.7678 29.176 32.7305 30.072L32.7118 30.6133C32.7118 32.9653 33.583 34.1413 35.3251 34.1413ZM46.3708 35.6533C45.0889 35.6533 44.0623 35.2613 43.2908 34.4773C42.5316 33.6809 42.1148 32.5982 42.0401 31.2293L42.0214 30.5946L42.0401 29.9786C42.1272 28.6346 42.5503 27.5644 43.3094 26.768C44.0809 25.9716 45.0952 25.5733 46.3521 25.5733C47.7334 25.5733 48.8036 26.015 49.5628 26.8986C50.3219 27.7697 50.7014 28.952 50.7014 30.4453V30.7626C50.7014 30.887 50.6579 30.9929 50.5708 31.08C50.4961 31.1546 50.3965 31.192 50.2721 31.192H43.8134V31.36C43.8508 32.1689 44.0934 32.8596 44.5414 33.432C45.0019 33.992 45.6054 34.272 46.3521 34.272C46.9245 34.272 47.3912 34.16 47.7521 33.936C48.1254 33.6996 48.3992 33.4569 48.5734 33.208C48.6854 33.0586 48.7663 32.9716 48.8161 32.9466C48.8783 32.9093 48.9841 32.8906 49.1334 32.8906H50.0481C50.1601 32.8906 50.2534 32.9217 50.3281 32.984C50.4028 33.0462 50.4401 33.1333 50.4401 33.2453C50.4401 33.519 50.2659 33.8489 49.9174 34.2346C49.5814 34.6204 49.1023 34.9564 48.4801 35.2426C47.8703 35.5164 47.1672 35.6533 46.3708 35.6533ZM48.9281 29.904V29.848C48.9281 28.9893 48.6916 28.2924 48.2188 27.7573C47.7583 27.2097 47.1361 26.936 46.3521 26.936C45.5681 26.936 44.9459 27.2097 44.4854 27.7573C44.0374 28.2924 43.8134 28.9893 43.8134 29.848V29.904H48.9281ZM52.7285 35.4666C52.604 35.4666 52.4983 35.4293 52.4111 35.3546C52.3365 35.2676 52.2991 35.1617 52.2991 35.0373V34.384C52.2991 34.2844 52.324 34.1849 52.3738 34.0853C52.436 33.9733 52.4983 33.8737 52.5605 33.7866L57.7125 27.2346H52.8965C52.772 27.2346 52.6663 27.1973 52.5791 27.1226C52.5045 27.0356 52.4671 26.9297 52.4671 26.8053V26.1893C52.4671 26.0649 52.5045 25.9653 52.5791 25.8906C52.6663 25.8036 52.772 25.76 52.8965 25.76H59.5418C59.6663 25.76 59.7658 25.8036 59.8405 25.8906C59.9276 25.9653 59.9711 26.0649 59.9711 26.1893V26.88C59.9711 26.9796 59.94 27.079 59.8778 27.1786C59.828 27.2782 59.772 27.3716 59.7098 27.4586L54.6138 33.992H59.9151C60.052 33.992 60.1578 34.0293 60.2325 34.104C60.3071 34.1786 60.3445 34.2844 60.3445 34.4213V35.0373C60.3445 35.1617 60.301 35.2676 60.2138 35.3546C60.1391 35.4293 60.0396 35.4666 59.9151 35.4666H52.7285Z" fill="#22313F"/>
</svg>
