<svg width="20" height="16" viewBox="0 0 20 16" fill="none" xmlns="http://www.w3.org/2000/svg">
<mask id="path-1-inside-1" fill="white">
<path d="M7.20832 15.9C6.77296 15.9 6.36469 15.7307 6.05775 15.4229L0.476424 9.84158C-0.159072 9.20711 -0.159072 8.17457 0.476424 7.53925L1.7917 6.22397C2.42618 5.58847 3.45956 5.58847 4.09404 6.22397L7.20832 9.33826L15.905 0.642638C16.5394 0.00714153 17.5728 0.00714153 18.2073 0.642638L19.5226 1.95792C19.8305 2.26587 19.9998 2.67415 19.9998 3.10866C19.9998 3.54299 19.8305 3.95229 19.5226 4.25923L8.35992 15.4219C8.05213 15.7298 7.64369 15.9 7.20832 15.9ZM7.86596 14.9298H7.87533H7.86596ZM2.94244 7.14204C2.88283 7.14204 2.82338 7.16435 2.77773 7.21L1.46246 8.52528C1.37116 8.61641 1.37116 8.7634 1.46246 8.85453L7.04379 14.4359C7.13117 14.5243 7.28565 14.5243 7.37303 14.4359L18.5357 3.27319C18.6268 3.18207 18.6268 3.03507 18.5357 2.94395L17.2204 1.62867C17.1291 1.53737 16.9821 1.53737 16.891 1.62867L7.70143 10.8182C7.4289 11.0908 6.9869 11.0908 6.71437 10.8182L3.10613 7.21085C3.0615 7.16435 3.00291 7.14204 2.94244 7.14204Z"/>
</mask>
<path d="M7.20832 15.9C6.77296 15.9 6.36469 15.7307 6.05775 15.4229L0.476424 9.84158C-0.159072 9.20711 -0.159072 8.17457 0.476424 7.53925L1.7917 6.22397C2.42618 5.58847 3.45956 5.58847 4.09404 6.22397L7.20832 9.33826L15.905 0.642638C16.5394 0.00714153 17.5728 0.00714153 18.2073 0.642638L19.5226 1.95792C19.8305 2.26587 19.9998 2.67415 19.9998 3.10866C19.9998 3.54299 19.8305 3.95229 19.5226 4.25923L8.35992 15.4219C8.05213 15.7298 7.64369 15.9 7.20832 15.9ZM7.86596 14.9298H7.87533H7.86596ZM2.94244 7.14204C2.88283 7.14204 2.82338 7.16435 2.77773 7.21L1.46246 8.52528C1.37116 8.61641 1.37116 8.7634 1.46246 8.85453L7.04379 14.4359C7.13117 14.5243 7.28565 14.5243 7.37303 14.4359L18.5357 3.27319C18.6268 3.18207 18.6268 3.03507 18.5357 2.94395L17.2204 1.62867C17.1291 1.53737 16.9821 1.53737 16.891 1.62867L7.70143 10.8182C7.4289 11.0908 6.9869 11.0908 6.71437 10.8182L3.10613 7.21085C3.0615 7.16435 3.00291 7.14204 2.94244 7.14204Z" fill="#59D0A5" stroke="#F6F4F8" stroke-width="0.2" mask="url(#path-1-inside-1)"/>
</svg>
