<svg width="20" height="16" viewBox="0 0 20 16" fill="none" xmlns="http://www.w3.org/2000/svg">
<rect width="20" height="16" fill="#F8F9FA"/>
<path d="M6.09336 15.2216L6.09331 15.2215L0.511978 9.64021L0.511949 9.64018C-0.10397 9.02525 -0.104004 8.0244 0.511973 7.40859L0.511978 7.40859L1.82726 6.09331L1.82728 6.09328C2.44223 5.47735 3.44391 5.47735 4.05885 6.09328L4.05888 6.09331L7.17317 9.2076L7.20852 9.24295L7.24388 9.2076L15.9405 0.51198L15.9405 0.511949C16.5555 -0.103983 17.5572 -0.103983 18.1721 0.511949L18.1721 0.511978L19.4874 1.82726C19.786 2.12586 19.95 2.52143 19.95 2.94264C19.95 3.36373 19.786 3.76028 19.4875 4.0578L19.4874 4.05786L8.32476 15.2205L8.32475 15.2205C8.02629 15.5191 7.63055 15.684 7.20852 15.684C6.78643 15.684 6.39089 15.5199 6.09336 15.2216ZM6.74993 10.6169L6.71653 10.6503L6.74992 10.6169L3.1424 7.01022C3.14228 7.01009 3.14215 7.00996 3.14203 7.00983C3.08733 6.95305 3.01554 6.92602 2.94264 6.92602C2.87048 6.92602 2.7981 6.95311 2.74258 7.00863L1.42733 8.32388C1.31647 8.43454 1.31647 8.61324 1.42733 8.7239L7.00843 14.305C7.00845 14.305 7.00848 14.305 7.00851 14.3051C7.11545 14.4132 7.30177 14.4132 7.40871 14.3051C7.40873 14.305 7.40876 14.305 7.40879 14.305L18.5712 3.14253C18.6819 3.03188 18.6819 2.85323 18.5712 2.74258L17.256 1.4273C17.1452 1.3165 16.9665 1.31645 16.8558 1.42733L7.66627 10.6169C7.41327 10.8699 7.00293 10.8699 6.74993 10.6169ZM7.87553 14.7138H7.86616V14.7638V14.8138H7.87553V14.7638V14.7138Z" fill="#59D0A5" stroke="#F6F4F8" stroke-width="0.1"/>
</svg>