<svg width="12" height="12" viewBox="0 0 12 12" fill="none" xmlns="http://www.w3.org/2000/svg">
<path fill-rule="evenodd" clip-rule="evenodd" d="M10.5225 11.3775C10.368 11.5321 10.1173 11.5321 9.96274 11.3775L6.2799 7.69468C6.12531 7.5401 5.87469 7.5401 5.7201 7.69468L2.03726 11.3775C1.88267 11.5321 1.63204 11.5321 1.47746 11.3775L0.623041 10.5231C0.468458 10.3685 0.468459 10.1179 0.623042 9.96331L4.30589 6.28047C4.46047 6.12588 4.46047 5.87526 4.30589 5.72067L0.623041 2.03783C0.468459 1.88324 0.468459 1.63261 0.623041 1.47803L1.47746 0.623611C1.63204 0.469029 1.88267 0.469029 2.03725 0.623612L5.7201 4.30646C5.87469 4.46104 6.12531 4.46104 6.2799 4.30646L9.96274 0.623612C10.1173 0.469029 10.368 0.469029 10.5225 0.623611L11.377 1.47803C11.5315 1.63261 11.5315 1.88324 11.377 2.03782L7.69411 5.72067C7.53953 5.87526 7.53953 6.12588 7.69411 6.28047L11.377 9.96331C11.5315 10.1179 11.5315 10.3685 11.377 10.5231L10.5225 11.3775Z" fill="white"/>
</svg>
