<svg width="11" height="10" viewBox="0 0 11 10" fill="none" xmlns="http://www.w3.org/2000/svg">
<path d="M7.35517 4.95542L10.3876 2.13787C10.7597 1.79212 10.7597 1.23154 10.3876 0.8855L9.71365 0.259315C9.34153 -0.0864383 8.7382 -0.0864383 8.36577 0.259315L5.33334 3.07687L2.30091 0.259315C1.92879 -0.0864383 1.32546 -0.0864383 0.953032 0.259315L0.279091 0.8855C-0.0930305 1.23125 -0.0930305 1.79184 0.279091 2.13787L3.31152 4.95542L0.279091 7.77298C-0.0930305 8.11873 -0.0930305 8.67931 0.279091 9.02535L0.953032 9.65153C1.32515 9.99729 1.92879 9.99729 2.30091 9.65153L5.33334 6.83398L8.36577 9.65153C8.7379 9.99729 9.34153 9.99729 9.71365 9.65153L10.3876 9.02535C10.7597 8.67959 10.7597 8.11901 10.3876 7.77298L7.35517 4.95542Z" fill="#272727" fill-opacity="0.2"/>
</svg>
