<svg width="15" height="15" viewBox="0 0 15 15" fill="none" xmlns="http://www.w3.org/2000/svg">
<path d="M14.5308 7.03122H8.59343C8.33469 7.03122 8.12469 6.82123 8.12469 6.56249C8.12469 6.30374 8.33469 6.09375 8.59343 6.09375H14.5308C14.7895 6.09375 14.9995 6.30374 14.9995 6.56249C14.9995 6.82123 14.7895 7.03122 14.5308 7.03122Z" fill="#787878"/>
<path d="M12.1871 9.37521C12.067 9.37521 11.9471 9.32955 11.8558 9.23777C11.6727 9.05455 11.6727 8.7577 11.8558 8.5746L13.8683 6.56222L11.8558 4.54973C11.6727 4.36663 11.6727 4.06978 11.8558 3.88668C12.039 3.70346 12.3358 3.70346 12.5189 3.88668L14.8626 6.23035C15.0457 6.41345 15.0457 6.7103 14.8626 6.8934L12.5189 9.23708C12.427 9.32955 12.3071 9.37521 12.1871 9.37521V9.37521Z" fill="#787878"/>
<path d="M4.99988 14.9995C4.8661 14.9995 4.73919 14.9808 4.6124 14.9414L0.851185 13.6883C0.339421 13.5096 0 13.0327 0 12.4996V1.25C0 0.560629 0.560629 0 1.25 0C1.38366 0 1.51057 0.0187677 1.63748 0.0581342L5.39858 1.31122C5.91046 1.48997 6.24977 1.96683 6.24977 2.49988V13.7495C6.24977 14.4389 5.68925 14.9995 4.99988 14.9995ZM1.25 0.937471C1.07811 0.937471 0.937471 1.07811 0.937471 1.25V12.4996C0.937471 12.6327 1.02685 12.7564 1.15433 12.8008L4.89792 14.0483C4.92481 14.057 4.95983 14.0621 4.99988 14.0621C5.17177 14.0621 5.3123 13.9214 5.3123 13.7495V2.49988C5.3123 2.36679 5.22292 2.24309 5.09544 2.19868L1.35185 0.951203C1.32496 0.942506 1.28994 0.937471 1.25 0.937471V0.937471Z" fill="#787878"/>
<path d="M9.53096 4.99988C9.27222 4.99988 9.06223 4.78989 9.06223 4.53115V1.71873C9.06223 1.28811 8.71171 0.937471 8.28108 0.937471H1.25005C0.991304 0.937471 0.781311 0.727478 0.781311 0.468735C0.781311 0.209993 0.991304 0 1.25005 0H8.28108C9.22919 0 9.9997 0.770621 9.9997 1.71873V4.53115C9.9997 4.78989 9.78971 4.99988 9.53096 4.99988Z" fill="#787878"/>
<path d="M8.28099 13.1249H5.78099C5.52225 13.1249 5.31226 12.9149 5.31226 12.6561C5.31226 12.3974 5.52225 12.1874 5.78099 12.1874H8.28099C8.71162 12.1874 9.06214 11.8368 9.06214 11.4061V8.59374C9.06214 8.33499 9.27213 8.125 9.53087 8.125C9.78962 8.125 9.99961 8.33499 9.99961 8.59374V11.4061C9.99961 12.3543 9.2291 13.1249 8.28099 13.1249V13.1249Z" fill="#787878"/>
</svg>
