<svg width="28" height="28" viewBox="0 0 28 28" fill="none" xmlns="http://www.w3.org/2000/svg">
<g clip-path="url(#clip0)">
<path d="M13.7806 27.95H11.5931C10.5351 27.95 9.67434 27.0892 9.67434 26.0312V12.4688C9.67434 11.4108 10.5351 10.55 11.5931 10.55H13.7806C14.8386 10.55 15.6993 11.4108 15.6993 12.4688V26.0312C15.6993 27.0892 14.8385 27.95 13.7806 27.95ZM11.5931 12.2C11.4448 12.2 11.3243 12.3205 11.3243 12.4688V26.0312C11.3243 26.1795 11.4448 26.3 11.5931 26.3H13.7806C13.9288 26.3 14.0493 26.1795 14.0493 26.0312V12.4688C14.0493 12.3205 13.9288 12.2 13.7806 12.2H11.5931Z" fill="#5A6B7B" stroke="#22313F" stroke-width="0.1"/>
<path d="M5.4681 27.95H3.2806C2.22261 27.95 1.36184 27.0892 1.36184 26.0312V16.8438C1.36184 15.7858 2.22261 14.925 3.2806 14.925H5.4681C6.52609 14.925 7.38685 15.7858 7.38685 16.8438V26.0312C7.38685 27.0892 6.52604 27.95 5.4681 27.95ZM3.2806 16.575C3.13234 16.575 3.01185 16.6955 3.01185 16.8438V26.0312C3.01185 26.1795 3.13234 26.3 3.2806 26.3H5.4681C5.61635 26.3 5.73685 26.1795 5.73685 26.0312V16.8438C5.73685 16.6955 5.61635 16.575 5.4681 16.575H3.2806Z" fill="#5A6B7B" stroke="#22313F" stroke-width="0.1"/>
<path d="M17.9868 7.875V7.825H17.9368H16.7348C16.1924 7.825 15.7151 7.51918 15.4884 7.02636C15.2617 6.53354 15.3401 5.9722 15.6932 5.5603L15.6932 5.56023L15.7051 5.54664L15.7051 5.54663L20.3849 0.324415L20.3477 0.291047L20.3849 0.324414C20.5414 0.149775 20.7648 0.05 20.9993 0.05C21.2338 0.05 21.4572 0.149771 21.6138 0.32442L26.2935 5.54663L26.2937 5.54688C26.2975 5.55108 26.3014 5.5555 26.3054 5.56023L26.3055 5.5603C26.6585 5.97214 26.7369 6.53353 26.5103 7.02636C26.2836 7.51918 25.8063 7.825 25.2639 7.825H24.0618H24.0118V7.875V26.0312C24.0118 27.0892 23.151 27.95 22.0931 27.95H19.9056C18.8476 27.95 17.9868 27.0892 17.9868 26.0312V7.875ZM17.4323 6.09163L17.3576 6.175H17.4696H18.8118C19.2674 6.175 19.6368 6.5444 19.6368 7V26.0312C19.6368 26.1795 19.7573 26.3 19.9056 26.3H22.0931C22.2413 26.3 22.3618 26.1795 22.3618 26.0312V7C22.3618 6.5444 22.7312 6.175 23.1868 6.175H24.5291H24.641L24.5663 6.09163L21.0366 2.15276L20.9993 2.11121L20.9621 2.15276L17.4323 6.09163Z" fill="#5A6B7B" stroke="#22313F" stroke-width="0.1"/>
</g>
<defs>
<clipPath id="clip0">
<rect width="28" height="28" fill="white"/>
</clipPath>
</defs>
</svg>
