<svg width="12" height="14" viewBox="0 0 12 14" fill="none" xmlns="http://www.w3.org/2000/svg">
<path d="M8.11055 6.49154C9.00636 5.83822 9.58971 4.78089 9.58971 3.58974C9.58971 1.61036 7.97936 0 5.99997 0C4.02058 0 2.41023 1.61036 2.41023 3.58974C2.41023 4.78089 2.99355 5.83822 3.88939 6.49154C1.66251 7.34371 0.0769043 9.5028 0.0769043 12.0256C0.0769043 13.1143 0.962596 14 2.05126 14H9.94868C11.0373 14 11.923 13.1143 11.923 12.0256C11.923 9.5028 10.3374 7.34371 8.11055 6.49154ZM3.48716 3.58974C3.48716 2.20418 4.61441 1.07693 5.99997 1.07693C7.38553 1.07693 8.51278 2.20418 8.51278 3.58974C8.51278 4.9753 7.38553 6.10258 5.99997 6.10258C4.61441 6.10258 3.48716 4.9753 3.48716 3.58974ZM9.94868 12.9231H2.05126C1.55642 12.9231 1.15384 12.5205 1.15384 12.0256C1.15384 9.35342 3.32778 7.17946 6 7.17946C8.67222 7.17946 10.8462 9.35339 10.8462 12.0256C10.8461 12.5205 10.4435 12.9231 9.94868 12.9231Z" fill="#787878"/>
</svg>
