<svg width="28" height="28" viewBox="0 0 28 28" fill="none" xmlns="http://www.w3.org/2000/svg">
<path d="M3.82812 0.1H5.14062C7.19622 0.1 8.86875 1.77253 8.86875 3.82812V24.1719C8.86875 26.2275 7.19622 27.9 5.14062 27.9H3.82812C1.77253 27.9 0.1 26.2275 0.1 24.1719V3.82812C0.1 1.77253 1.77253 0.1 3.82812 0.1ZM5.14062 25.9125C6.10049 25.9125 6.88125 25.1317 6.88125 24.1719V3.82812C6.88125 2.86826 6.10049 2.0875 5.14062 2.0875H3.82812C2.86826 2.0875 2.0875 2.86826 2.0875 3.82812V24.1719C2.0875 25.1317 2.86826 25.9125 3.82812 25.9125H5.14062Z" fill="white" stroke="#22313F" stroke-width="0.2"/>
<path d="M15.0938 0.1H24.1719C26.2275 0.1 27.9 1.77253 27.9 3.82812V5.14062C27.9 7.19622 26.2275 8.86875 24.1719 8.86875H15.0938C13.0382 8.86875 11.3656 7.19622 11.3656 5.14062V3.82812C11.3656 1.77253 13.0382 0.1 15.0938 0.1ZM24.1719 6.88125C25.1317 6.88125 25.9125 6.10049 25.9125 5.14062V3.82812C25.9125 2.86826 25.1317 2.0875 24.1719 2.0875H15.0938C14.1339 2.0875 13.3531 2.86826 13.3531 3.82812V5.14062C13.3531 6.10049 14.1339 6.88125 15.0938 6.88125H24.1719Z" fill="white" stroke="#22313F" stroke-width="0.2"/>
<path d="M15.0938 11.4203H24.1719C26.2275 11.4203 27.9 13.0928 27.9 15.1484V18.7031C27.9 19.252 27.4551 19.6969 26.9062 19.6969C26.3574 19.6969 25.9125 19.252 25.9125 18.7031V15.1484C25.9125 14.1886 25.1317 13.4078 24.1719 13.4078H15.0938C14.1339 13.4078 13.3531 14.1886 13.3531 15.1484V24.1719C13.3531 25.1317 14.1339 25.9125 15.0938 25.9125H24.1719C25.1317 25.9125 25.9125 25.1317 25.9125 24.1719C25.9125 23.623 26.3574 23.1781 26.9062 23.1781C27.4551 23.1781 27.9 23.623 27.9 24.1719C27.9 26.2275 26.2275 27.9 24.1719 27.9H15.0938C13.0382 27.9 11.3656 26.2275 11.3656 24.1719V15.1484C11.3656 13.0928 13.0382 11.4203 15.0938 11.4203Z" fill="white" stroke="#22313F" stroke-width="0.2"/>
<line x1="26.9" y1="17.9" x2="26.9" y2="24.1" stroke="white" stroke-width="1.8" stroke-linecap="round"/>
</svg>
