<svg width="76" height="72" viewBox="0 0 76 72" fill="none" xmlns="http://www.w3.org/2000/svg">
<path opacity="0.75" d="M33.1657 16.131L33.1654 16.132L31.9698 19.2237L31.4124 20.6654L29.9881 20.0649L26.9335 18.7772L26.9313 18.7762C19.7823 15.7485 11.4852 18.3854 8.10687 25.1425L33.1657 16.131ZM33.1657 16.131C35.9646 8.87882 43.615 4.74777 50.8215 7.01065C59.2124 9.65322 63.5547 18.9683 60.4491 27.0173L60.4489 27.0177M33.1657 16.131L60.4489 27.0177M60.4489 27.0177L48.7247 57.4297C48.7247 57.4298 48.7246 57.4299 48.7246 57.4301C48.2716 58.6034 46.9804 59.1515 45.8218 58.6622C45.8217 58.6622 45.8215 58.6621 45.8214 58.6621L15.8014 45.9702M60.4489 27.0177L15.8014 45.9702M15.8014 45.9702C7.86409 42.6088 4.17956 33.0144 8.10674 25.1428L15.8014 45.9702Z" fill="#FF1563" stroke="#EBEBEB" stroke-width="3"/>
</svg>
