<svg width="20" height="20" viewBox="0 0 20 20" fill="59D0A5" xmlns="http://www.w3.org/2000/svg">
  <filter id="flood2">
    <feFlood flood-color="seagreen" x="0" y="0" width="200" height="200"/>
  </filter>
<path d="M1.45839 20H3.54172C4.34589 20 5.00006 19.3458 5.00006 18.5417V18.2366C6.26006 18.8783 9.12172 20 13.7759 20H15.1092C17.0417 20 18.6809 18.6183 19.0092 16.7149L19.9426 11.2983C20.1409 10.1425 19.8217 8.96749 19.0684 8.07249C18.3151 7.17917 17.2117 6.66666 16.0426 6.66666H12.2626C12.4984 6.03334 12.7342 5.11 12.7342 3.95834C12.7342 0.8275 10.9626 0 10.0259 0C8.29589 0 8.15089 1.61334 8.15089 3.125C8.15089 4.97 6.08172 6.50334 4.98923 7.185C4.9334 6.43166 4.30923 5.83334 3.54172 5.83334H1.45839C0.654228 5.83334 6.10352e-05 6.48749 6.10352e-05 7.29166V18.5417C6.10352e-05 19.3458 0.654228 20 1.45839 20ZM9.40089 3.125C9.40089 1.25 9.7184 1.25 10.0259 1.25C10.6126 1.25 11.4842 1.97166 11.4842 3.95834C11.4842 5.805 10.7609 6.93666 10.7559 6.945C10.6284 7.13666 10.6159 7.38334 10.7251 7.58666C10.8334 7.79 11.0459 7.91666 11.2759 7.91666H16.0426C16.8426 7.91666 17.5968 8.26666 18.1117 8.87749C18.6275 9.48917 18.8458 10.2942 18.7101 11.085L17.7768 16.5017C17.5526 17.8049 16.4309 18.75 15.1092 18.75H13.7759C8.10672 18.75 5.26672 16.9766 5.00006 16.8008V8.62583C5.69423 8.25749 9.40089 6.14917 9.40089 3.125ZM1.25006 7.29166C1.25006 7.17666 1.34339 7.08334 1.45839 7.08334H3.54172C3.65672 7.08334 3.75006 7.17666 3.75006 7.29166V18.5417C3.75006 18.6549 3.65506 18.75 3.54172 18.75H1.45839C1.34339 18.75 1.25006 18.6566 1.25006 18.5417V7.29166Z" fill="#59D0A5"/>
</svg>
