<svg width="20" height="20" viewBox="0 0 20 20" fill="none" xmlns="http://www.w3.org/2000/svg">
<g clip-path="url(#clip0)">
<path d="M19.3745 9.37545H11.458C11.1131 9.37545 10.8331 9.09546 10.8331 8.75047C10.8331 8.40548 11.1131 8.12549 11.458 8.12549H19.3745C19.7195 8.12549 19.9995 8.40548 19.9995 8.75047C19.9995 9.09546 19.7195 9.37545 19.3745 9.37545Z" fill="#59D0A5"/>
<path d="M16.2494 12.5003C16.0894 12.5003 15.9295 12.4394 15.8077 12.317C15.5636 12.0727 15.5636 11.6769 15.8077 11.4328L18.491 8.74963L15.8077 6.0663C15.5636 5.82217 15.5636 5.42637 15.8077 5.18224C16.052 4.93795 16.4478 4.93795 16.6919 5.18224L19.8168 8.30714C20.061 8.55127 20.061 8.94707 19.8168 9.19121L16.6919 12.3161C16.5694 12.4394 16.4095 12.5003 16.2494 12.5003Z" fill="#59D0A5"/>
<path d="M6.66651 20.0004C6.48814 20.0004 6.31893 19.9753 6.14987 19.9228L1.13492 18.2521C0.452562 18.0137 0 17.3779 0 16.6672V1.66764C0 0.748481 0.747505 0.000976562 1.66667 0.000976562C1.84488 0.000976562 2.0141 0.0260002 2.18331 0.0784888L7.19811 1.74927C7.88062 1.98761 8.33302 2.62342 8.33302 3.33415V18.3337C8.33302 19.2528 7.58567 20.0004 6.66651 20.0004ZM1.66667 1.25094C1.43749 1.25094 1.24996 1.43846 1.24996 1.66764V16.6672C1.24996 16.8446 1.36913 17.0096 1.53911 17.0688L6.53056 18.7321C6.56642 18.7437 6.61311 18.7504 6.66651 18.7504C6.89569 18.7504 7.08306 18.5629 7.08306 18.3337V3.33415C7.08306 3.1567 6.9639 2.99176 6.79392 2.93256L1.80247 1.26925C1.76661 1.25765 1.71992 1.25094 1.66667 1.25094Z" fill="#59D0A5"/>
<path d="M12.7079 6.66749C12.3629 6.66749 12.0829 6.3875 12.0829 6.04251V2.29262C12.0829 1.71845 11.6156 1.25094 11.0414 1.25094H1.6667C1.32171 1.25094 1.04172 0.970948 1.04172 0.625957C1.04172 0.280967 1.32171 0.000976562 1.6667 0.000976562H11.0414C12.3055 0.000976562 13.3329 1.02847 13.3329 2.29262V6.04251C13.3329 6.3875 13.0529 6.66749 12.7079 6.66749Z" fill="#59D0A5"/>
<path d="M11.0413 17.5H7.70802C7.36303 17.5 7.08304 17.22 7.08304 16.875C7.08304 16.53 7.36303 16.25 7.70802 16.25H11.0413C11.6155 16.25 12.0829 15.7825 12.0829 15.2084V11.4585C12.0829 11.1135 12.3629 10.8335 12.7078 10.8335C13.0528 10.8335 13.3328 11.1135 13.3328 11.4585V15.2084C13.3328 16.4725 12.3055 17.5 11.0413 17.5Z" fill="#59D0A5"/>
</g>
<defs>
<clipPath id="clip0">
<rect width="20" height="20" fill="white"/>
</clipPath>
</defs>
</svg>
