<svg width="495" height="338" viewBox="0 0 495 338" fill="none" xmlns="http://www.w3.org/2000/svg">
<path d="M96.4999 188C96.4999 155 94.8999 70.1 104.5 52.5C116.5 30.5 140 37.5 186 62.5C197.5 68.75 327 137 339 143.5C348.511 148.652 370 168.5 343.5 190.5C342.218 191.564 325.5 207.5 315 211" stroke="#59D0A5" stroke-width="20" stroke-linecap="round"/>
<path d="M121.8 286.5C113.5 286.5 106.3 285.2 100.2 282.6C94.2 280 89.6003 276.6 86.4001 272.4C83.1998 268.1 81.5003 263.5 81.3 258.6C81.3 257.8 81.6 257.1 82.2 256.5C82.8998 255.8 83.7 255.45 84.6 255.45H92.25C94.1498 255.45 95.4503 256.45 96.15 258.45C97.05 262.65 99.6 266.25 103.8 269.25C108.1 272.25 114.1 273.75 121.8 273.75C130.1 273.75 136.35 272.3 140.55 269.4C144.75 266.4 146.85 262.25 146.85 256.95C146.85 253.55 145.8 250.8 143.7 248.7C141.7 246.6 138.7 244.75 134.7 243.15C130.7 241.55 124.7 239.55 116.7 237.15C108.9 234.95 102.7 232.6 98.1 230.1C93.5003 227.6 90.0503 224.5 87.75 220.8C85.4498 217.1 84.3 212.45 84.3 206.85C84.3 201.45 85.7498 196.6 88.65 192.3C91.65 188 95.9003 184.65 101.4 182.25C106.9 179.75 113.45 178.5 121.05 178.5C128.85 178.5 135.55 179.9 141.15 182.7C146.75 185.4 151 188.85 153.9 193.05C156.8 197.25 158.35 201.45 158.55 205.65C158.55 206.45 158.25 207.15 157.65 207.75C157.15 208.35 156.4 208.65 155.4 208.65H147.45C145.35 208.65 144.05 207.7 143.55 205.8C142.95 201.6 140.6 198.15 136.5 195.45C132.4 192.65 127.25 191.25 121.05 191.25C114.25 191.25 108.9 192.55 105 195.15C101.1 197.75 99.15 201.6 99.15 206.7C99.15 210.1 100.05 212.9 101.85 215.1C103.75 217.3 106.6 219.25 110.4 220.95C114.2 222.55 119.75 224.4 127.05 226.5C135.55 228.8 142.25 231.2 147.15 233.7C152.05 236.1 155.7 239.15 158.1 242.85C160.5 246.45 161.7 251.05 161.7 256.65C161.7 265.95 158.1 273.25 150.9 278.55C143.7 283.85 134 286.5 121.8 286.5ZM183.011 285C182.011 285 181.16 284.7 180.461 284.1C179.861 283.4 179.561 282.55 179.561 281.55V181.95C179.561 180.95 179.861 180.15 180.461 179.55C181.16 178.85 182.011 178.5 183.011 178.5H190.061C191.06 178.5 191.861 178.85 192.461 179.55C193.16 180.15 193.511 180.95 193.511 181.95V281.55C193.511 282.55 193.16 283.4 192.461 284.1C191.861 284.7 191.06 285 190.061 285H183.011ZM218.135 192.45C217.136 192.45 216.285 192.15 215.585 191.55C214.985 190.85 214.685 190 214.685 189V180.9C214.685 179.9 214.985 179.05 215.585 178.35C216.285 177.65 217.136 177.3 218.135 177.3H227.585C228.585 177.3 229.436 177.65 230.135 178.35C230.835 179.05 231.185 179.9 231.185 180.9V189C231.185 190 230.835 190.85 230.135 191.55C229.436 192.15 228.585 192.45 227.585 192.45H218.135ZM219.335 285C218.336 285 217.485 284.7 216.785 284.1C216.185 283.4 215.885 282.55 215.885 281.55V210.45C215.885 209.45 216.185 208.65 216.785 208.05C217.485 207.35 218.336 207 219.335 207H226.535C227.535 207 228.335 207.35 228.935 208.05C229.635 208.65 229.985 209.45 229.985 210.45V281.55C229.985 282.55 229.635 283.4 228.935 284.1C228.335 284.7 227.535 285 226.535 285H219.335ZM280.713 286.5C270.314 286.5 262.463 283.1 257.163 276.3C251.864 269.5 249.063 260.9 248.763 250.5L248.613 246L248.763 241.5C249.063 231.2 251.864 222.65 257.163 215.85C262.463 208.95 270.314 205.5 280.713 205.5C291.014 205.5 299.114 209.15 305.013 216.45V181.95C305.013 180.95 305.313 180.15 305.913 179.55C306.614 178.85 307.463 178.5 308.463 178.5H315.663C316.664 178.5 317.463 178.85 318.063 179.55C318.764 180.15 319.113 180.95 319.113 181.95V281.55C319.113 282.55 318.764 283.4 318.063 284.1C317.463 284.7 316.664 285 315.663 285H308.913C307.913 285 307.064 284.7 306.363 284.1C305.763 283.4 305.463 282.55 305.463 281.55V275.25C299.663 282.75 291.413 286.5 280.713 286.5ZM283.863 274.35C290.763 274.35 295.913 272.1 299.313 267.6C302.813 263 304.713 257.55 305.013 251.25C305.114 250.15 305.163 248.25 305.163 245.55C305.163 242.75 305.114 240.8 305.013 239.7C304.814 233.8 302.913 228.65 299.313 224.25C295.713 219.85 290.564 217.65 283.863 217.65C276.764 217.65 271.563 219.85 268.263 224.25C265.064 228.65 263.313 234.45 263.013 241.65L262.863 246C262.863 264.9 269.864 274.35 283.863 274.35ZM372.623 286.5C362.322 286.5 354.072 283.35 347.873 277.05C341.772 270.65 338.423 261.95 337.823 250.95L337.673 245.85L337.823 240.9C338.522 230.1 341.922 221.5 348.023 215.1C354.222 208.7 362.372 205.5 372.473 205.5C383.573 205.5 392.172 209.05 398.273 216.15C404.372 223.15 407.423 232.65 407.423 244.65V247.2C407.423 248.2 407.072 249.05 406.373 249.75C405.773 250.35 404.972 250.65 403.973 250.65H352.073V252C352.373 258.5 354.323 264.05 357.923 268.65C361.622 273.15 366.473 275.4 372.473 275.4C377.072 275.4 380.822 274.5 383.723 272.7C386.723 270.8 388.922 268.85 390.323 266.85C391.223 265.65 391.872 264.95 392.273 264.75C392.772 264.45 393.623 264.3 394.823 264.3H402.173C403.073 264.3 403.823 264.55 404.423 265.05C405.023 265.55 405.323 266.25 405.323 267.15C405.323 269.35 403.922 272 401.123 275.1C398.423 278.2 394.572 280.9 389.573 283.2C384.672 285.4 379.022 286.5 372.623 286.5ZM393.173 240.3V239.85C393.173 232.95 391.272 227.35 387.473 223.05C383.772 218.65 378.773 216.45 372.473 216.45C366.173 216.45 361.172 218.65 357.473 223.05C353.873 227.35 352.073 232.95 352.073 239.85V240.3H393.173ZM423.711 285C422.711 285 421.862 284.7 421.161 284.1C420.561 283.4 420.261 282.55 420.261 281.55V276.3C420.261 275.5 420.461 274.7 420.861 273.9C421.361 273 421.862 272.2 422.361 271.5L463.761 218.85H425.061C424.061 218.85 423.212 218.55 422.511 217.95C421.911 217.25 421.611 216.4 421.611 215.4V210.45C421.611 209.45 421.911 208.65 422.511 208.05C423.212 207.35 424.061 207 425.061 207H478.461C479.462 207 480.261 207.35 480.861 208.05C481.562 208.65 481.911 209.45 481.911 210.45V216C481.911 216.8 481.661 217.6 481.161 218.4C480.761 219.2 480.311 219.95 479.811 220.65L438.861 273.15H481.461C482.561 273.15 483.411 273.45 484.011 274.05C484.611 274.65 484.911 275.5 484.911 276.6V281.55C484.911 282.55 484.562 283.4 483.861 284.1C483.261 284.7 482.462 285 481.461 285H423.711Z" fill="white"/>
</svg>
