<svg width="20" height="20" viewBox="0 0 20 20" fill="none" xmlns="http://www.w3.org/2000/svg">
<path d="M7.21602 0L6.72875 0.0100501C6.12591 0.0100501 5.62503 0.500883 5.62503 1.10389V18.9211C5.62503 19.5239 6.16789 20 6.77074 20H6.77414L7.21894 19.9971C7.82243 19.9971 8.28149 19.514 8.28149 18.9107V1.094C8.28133 0.490995 7.82243 0 7.21602 0Z" fill="#59D0A5"/>
<path d="M13.3158 0L12.8258 0.0100501C12.2228 0.0100501 11.7195 0.500883 11.7195 1.10389V18.9211C11.7195 19.5239 12.275 20 12.8777 20H12.8811L13.3194 19.9971C13.9224 19.9971 14.3751 19.514 14.3751 18.9107V1.094C14.375 0.490995 13.9222 0 13.3158 0Z" fill="#59D0A5"/>
</svg>
