<svg width="20" height="20" viewBox="0 0 20 20" fill="none" xmlns="http://www.w3.org/2000/svg">
<mask id="path-1-inside-1" fill="white">
<path d="M18.8019 16.1032C19.5874 15.0338 20 13.7911 20 12.4814C20 10.3849 18.9127 8.43838 17.0784 7.2237C16.9093 5.35577 16.0371 3.62347 14.5788 2.28875C12.9663 0.81285 10.8268 0 8.5547 0C6.28255 0 4.14318 0.81285 2.53061 2.28878C0.898735 3.78234 2.60491e-05 5.77366 2.60491e-05 7.89592C2.60491e-05 9.52826 0.526236 11.0758 1.52655 12.4L0.0569791 16.0353C-0.0622004 16.3301 0.00916664 16.6677 0.237486 16.889C0.386314 17.0332 0.58233 17.1094 0.78147 17.1094C0.887837 17.1093 0.995102 17.0876 1.09643 17.043L5.28787 15.1953C5.81408 15.3965 6.35619 15.5469 6.91079 15.6465C7.47888 16.5808 8.28919 17.372 9.27427 17.948C10.374 18.5909 11.6438 18.9345 12.95 18.9443C12.9691 18.9457 12.9883 18.9473 13.0079 18.9473C13.9109 18.9473 14.7858 18.7913 15.6134 18.4832L18.9036 19.9336C19.0049 19.9783 19.1122 20 19.2186 20C19.4177 20 19.6138 19.9239 19.7626 19.7796C19.9909 19.5583 20.0623 19.2207 19.9431 18.9259L18.8019 16.1032ZM17.1832 16.2678L17.7733 17.7278L15.9438 16.9213C15.746 16.8341 15.5209 16.8327 15.3221 16.9176C14.605 17.2235 13.8371 17.3803 13.0395 17.3844C13.0289 17.3839 13.0185 17.3828 13.0078 17.3828C11.4682 17.3828 10.0137 16.7811 8.99751 15.7803C10.2859 15.7186 11.5488 15.3896 12.6747 14.8178C13.0595 14.6224 13.2129 14.1522 13.0175 13.7674C12.8221 13.3827 12.3519 13.2293 11.9672 13.4247C10.9307 13.9511 9.75063 14.2293 8.5547 14.2293C7.51548 14.2293 6.51497 14.0273 5.58111 13.6288C5.38232 13.544 5.15716 13.5453 4.95939 13.6326L2.22666 14.8372L3.14674 12.5612C3.25584 12.2913 3.20588 11.9831 3.01701 11.7616C2.06549 10.6453 1.56252 9.30854 1.56252 7.89592C1.56252 4.40362 4.6992 1.5625 8.5547 1.5625C12.4102 1.5625 15.5469 4.40362 15.5469 7.89592C15.5469 9.02389 15.2153 10.1312 14.5878 11.0982C14.353 11.4602 14.456 11.944 14.818 12.1788C15.1799 12.4137 15.6637 12.3106 15.8986 11.9486C16.4554 11.0905 16.8274 10.143 16.9994 9.15893C17.9146 10.0552 18.4375 11.2357 18.4375 12.4814C18.4375 13.5723 18.0486 14.6051 17.3129 15.4682C17.124 15.6897 17.0741 15.9979 17.1832 16.2678ZM9.29688 11.914C9.29688 12.3455 8.94712 12.6953 8.51563 12.6953C8.08415 12.6953 7.73439 12.3455 7.73439 11.914C7.73439 11.4826 8.08415 11.1328 8.51563 11.1328C8.94712 11.1328 9.29688 11.4826 9.29688 11.914ZM11.4837 6.06061C11.4842 6.07147 11.4844 6.08233 11.4844 6.09331C11.4847 7.26936 10.7859 8.32772 9.70423 8.78947C9.4804 8.88506 9.33571 9.11049 9.33571 9.36373V9.41404C9.33571 9.84553 8.98595 10.1953 8.55446 10.1953C8.12298 10.1953 7.77321 9.84553 7.77321 9.41404V9.36377C7.77321 8.48365 8.29036 7.6942 9.09075 7.35252C9.58891 7.13983 9.91313 6.6562 9.92173 6.11608C9.92153 6.10858 9.92141 6.10104 9.92141 6.0935C9.92141 5.33979 9.30821 4.72659 8.55446 4.72659C7.80075 4.72655 7.18751 5.33976 7.18751 6.09346C7.18751 6.52495 6.83775 6.87471 6.40626 6.87471C5.97478 6.87471 5.62501 6.52495 5.62501 6.09346C5.62501 4.47819 6.93915 3.16406 8.55446 3.16406C10.1588 3.16406 11.4661 4.46042 11.4837 6.06061Z"/>
</mask>
<path d="M18.8019 16.1032C19.5874 15.0338 20 13.7911 20 12.4814C20 10.3849 18.9127 8.43838 17.0784 7.2237C16.9093 5.35577 16.0371 3.62347 14.5788 2.28875C12.9663 0.81285 10.8268 0 8.5547 0C6.28255 0 4.14318 0.81285 2.53061 2.28878C0.898735 3.78234 2.60491e-05 5.77366 2.60491e-05 7.89592C2.60491e-05 9.52826 0.526236 11.0758 1.52655 12.4L0.0569791 16.0353C-0.0622004 16.3301 0.00916664 16.6677 0.237486 16.889C0.386314 17.0332 0.58233 17.1094 0.78147 17.1094C0.887837 17.1093 0.995102 17.0876 1.09643 17.043L5.28787 15.1953C5.81408 15.3965 6.35619 15.5469 6.91079 15.6465C7.47888 16.5808 8.28919 17.372 9.27427 17.948C10.374 18.5909 11.6438 18.9345 12.95 18.9443C12.9691 18.9457 12.9883 18.9473 13.0079 18.9473C13.9109 18.9473 14.7858 18.7913 15.6134 18.4832L18.9036 19.9336C19.0049 19.9783 19.1122 20 19.2186 20C19.4177 20 19.6138 19.9239 19.7626 19.7796C19.9909 19.5583 20.0623 19.2207 19.9431 18.9259L18.8019 16.1032ZM17.1832 16.2678L17.7733 17.7278L15.9438 16.9213C15.746 16.8341 15.5209 16.8327 15.3221 16.9176C14.605 17.2235 13.8371 17.3803 13.0395 17.3844C13.0289 17.3839 13.0185 17.3828 13.0078 17.3828C11.4682 17.3828 10.0137 16.7811 8.99751 15.7803C10.2859 15.7186 11.5488 15.3896 12.6747 14.8178C13.0595 14.6224 13.2129 14.1522 13.0175 13.7674C12.8221 13.3827 12.3519 13.2293 11.9672 13.4247C10.9307 13.9511 9.75063 14.2293 8.5547 14.2293C7.51548 14.2293 6.51497 14.0273 5.58111 13.6288C5.38232 13.544 5.15716 13.5453 4.95939 13.6326L2.22666 14.8372L3.14674 12.5612C3.25584 12.2913 3.20588 11.9831 3.01701 11.7616C2.06549 10.6453 1.56252 9.30854 1.56252 7.89592C1.56252 4.40362 4.6992 1.5625 8.5547 1.5625C12.4102 1.5625 15.5469 4.40362 15.5469 7.89592C15.5469 9.02389 15.2153 10.1312 14.5878 11.0982C14.353 11.4602 14.456 11.944 14.818 12.1788C15.1799 12.4137 15.6637 12.3106 15.8986 11.9486C16.4554 11.0905 16.8274 10.143 16.9994 9.15893C17.9146 10.0552 18.4375 11.2357 18.4375 12.4814C18.4375 13.5723 18.0486 14.6051 17.3129 15.4682C17.124 15.6897 17.0741 15.9979 17.1832 16.2678ZM9.29688 11.914C9.29688 12.3455 8.94712 12.6953 8.51563 12.6953C8.08415 12.6953 7.73439 12.3455 7.73439 11.914C7.73439 11.4826 8.08415 11.1328 8.51563 11.1328C8.94712 11.1328 9.29688 11.4826 9.29688 11.914ZM11.4837 6.06061C11.4842 6.07147 11.4844 6.08233 11.4844 6.09331C11.4847 7.26936 10.7859 8.32772 9.70423 8.78947C9.4804 8.88506 9.33571 9.11049 9.33571 9.36373V9.41404C9.33571 9.84553 8.98595 10.1953 8.55446 10.1953C8.12298 10.1953 7.77321 9.84553 7.77321 9.41404V9.36377C7.77321 8.48365 8.29036 7.6942 9.09075 7.35252C9.58891 7.13983 9.91313 6.6562 9.92173 6.11608C9.92153 6.10858 9.92141 6.10104 9.92141 6.0935C9.92141 5.33979 9.30821 4.72659 8.55446 4.72659C7.80075 4.72655 7.18751 5.33976 7.18751 6.09346C7.18751 6.52495 6.83775 6.87471 6.40626 6.87471C5.97478 6.87471 5.62501 6.52495 5.62501 6.09346C5.62501 4.47819 6.93915 3.16406 8.55446 3.16406C10.1588 3.16406 11.4661 4.46042 11.4837 6.06061Z" fill="#59D0A5" stroke="#F6F4F8" stroke-width="0.4" mask="url(#path-1-inside-1)"/>
</svg>
