<svg width="18" height="20" viewBox="0 0 18 20" fill="none" xmlns="http://www.w3.org/2000/svg">
<path d="M7.78498 0.191619V1.76851C7.78498 1.96022 7.63097 2.13586 7.44213 2.16895C3.22814 2.90892 0.0152588 6.5931 0.0152588 11.0158C0.0152588 15.97 4.04574 20.0004 8.99989 20.0004C13.9541 20.0004 17.9846 15.97 17.9846 11.0158C17.9846 10.5365 17.596 10.148 17.1167 10.148C16.6375 10.148 16.2489 10.5365 16.2489 11.0158C16.2489 15.0129 12.9971 18.2648 8.99989 18.2648C5.00272 18.2648 1.75086 15.0129 1.75086 11.0158C1.75086 7.55276 4.19242 4.65079 7.44417 3.93687C7.63138 3.89581 7.78495 4.02607 7.78495 4.21771V5.60633C7.78495 5.79804 7.9053 5.8551 8.05372 5.73383L11.2535 3.11859C11.402 2.99721 11.402 2.80062 11.2535 2.67924L8.0538 0.0642261C7.90534 -0.0571545 7.78498 1.9148e-05 7.78498 0.191619Z" fill="#59D0A5"/>
</svg>
