<svg width="32" height="9" viewBox="0 0 32 9" fill="none" xmlns="http://www.w3.org/2000/svg">
<path d="M3.11303 8.72837C2.32874 8.72404 1.67071 8.54589 1.1373 8.1931C0.6039 7.84031 0.229838 7.36259 0.0143052 6.75993L1.35287 5.98889C1.65759 6.79497 2.26148 7.20091 3.16618 7.20591C3.60307 7.20832 3.92406 7.13136 4.12832 6.9742C4.33259 6.81705 4.43539 6.61874 4.43671 6.37848C4.43825 6.10008 4.31497 5.88348 4.06686 5.72789C3.81876 5.5723 3.37547 5.40264 2.73537 5.2181C2.38204 5.11143 2.08241 5.00426 1.83811 4.89739C1.5938 4.79052 1.34969 4.64875 1.10578 4.47045C0.86187 4.29215 0.676797 4.0671 0.549744 3.7961C0.422691 3.5251 0.36098 3.20819 0.36297 2.84781C0.366913 2.13353 0.624708 1.56514 1.13554 1.14343C1.64637 0.721732 2.26017 0.512451 2.97611 0.516403C3.6164 0.519937 4.17934 0.678893 4.66414 0.994076C5.14812 1.30925 5.52485 1.7456 5.7927 2.30309L4.47705 3.05153C4.1643 2.37284 3.66094 2.03158 2.96777 2.02775C2.64315 2.02596 2.38891 2.09761 2.20342 2.24351C2.01793 2.3894 1.92413 2.57882 1.92284 2.81178C1.92147 3.06015 2.02369 3.26202 2.2303 3.41657C2.43691 3.57193 2.83302 3.74133 3.42024 3.92477C3.66064 4.00159 3.84337 4.06104 3.96762 4.10312C4.09187 4.1452 4.26074 4.21026 4.47505 4.29749C4.68936 4.38552 4.85488 4.46679 4.9708 4.54292C5.08754 4.61906 5.22041 4.72125 5.37022 4.84952C5.52084 4.9786 5.63482 5.11072 5.713 5.2459C5.79198 5.38189 5.8586 5.54541 5.91368 5.73809C5.96957 5.92996 5.99609 6.13871 5.99484 6.36436C5.99081 7.09406 5.72158 7.67132 5.18795 8.09695C4.65757 8.52261 3.96484 8.73308 3.11303 8.72837Z" fill="white"/>
<path d="M13.6123 7.59674C12.809 8.38616 11.8346 8.77689 10.6883 8.77057C9.54274 8.76424 8.57433 8.36278 7.78304 7.56457C6.99174 6.76635 6.60007 5.79258 6.60643 4.64161C6.61278 3.49065 7.01517 2.52126 7.81523 1.73264C8.61528 0.944023 9.58726 0.552462 10.7336 0.55879C11.8791 0.565113 12.8491 0.967394 13.6445 1.76482C14.4391 2.56305 14.8332 3.53684 14.8268 4.68699C14.8205 5.83795 14.4156 6.80733 13.6123 7.59674ZM8.88071 6.50973C9.36781 6.99781 9.9734 7.24305 10.6967 7.24704C11.4199 7.25103 12.0282 7.01169 12.5207 6.52982C13.0131 6.04795 13.2622 5.43081 13.2664 4.67838C13.2705 3.92676 13.0291 3.30447 12.5412 2.81313C12.0541 2.3218 11.4485 2.07413 10.7252 2.07014C10.002 2.06615 9.3937 2.30711 8.90123 2.79304C8.40876 3.27897 8.15963 3.89855 8.15548 4.65017C8.15133 5.40259 8.39361 6.02245 8.88071 6.50973Z" fill="white"/>
<path d="M22.5674 7.64679C21.764 8.43621 20.7896 8.82694 19.6441 8.82062C18.4978 8.81429 17.5302 8.41283 16.7389 7.61462C15.9476 6.8164 15.5551 5.84263 15.5615 4.69166C15.5678 3.5407 15.971 2.57132 16.7711 1.7827C17.5703 0.994072 18.5431 0.602515 19.6894 0.608843C20.835 0.615166 21.805 1.01745 22.5995 1.81487C23.3941 2.6131 23.7882 3.58689 23.7818 4.73704C23.7755 5.888 23.3707 6.85738 22.5674 7.64679ZM17.8357 6.55977C18.3228 7.04786 18.9284 7.2931 19.6525 7.29709C20.3758 7.30108 20.9841 7.06174 21.4765 6.57987C21.969 6.098 22.2173 5.48085 22.2214 4.72843C22.2256 3.97681 21.9841 3.35452 21.497 2.86319C21.0099 2.37185 20.4044 2.12418 19.6811 2.12019C18.9578 2.1162 18.3495 2.35717 17.8563 2.84309C17.3638 3.32902 17.1155 3.9486 17.1113 4.70022C17.1064 5.45264 17.3478 6.07249 17.8357 6.55977Z" fill="white"/>
<path d="M29.4791 0.820197L31.0396 0.828811L30.996 8.72484L29.809 8.71828L26.4438 3.87169L26.4172 8.69956L24.8567 8.69095L24.9003 0.794922L26.0873 0.801474L29.4534 5.63671L29.48 0.820201L29.4791 0.820197Z" fill="white"/>
</svg>
