<svg width="45" height="45" viewBox="0 0 45 45" fill="none" xmlns="http://www.w3.org/2000/svg">
<path opacity="0.75" d="M9.14063 19.6875H2.10938C0.944385 19.6875 0 20.6319 0 21.7969V42.8906C0 44.0556 0.944385 45 2.10938 45H9.14063C10.3056 45 11.25 44.0556 11.25 42.8906V21.7969C11.25 20.6319 10.3056 19.6875 9.14063 19.6875ZM5.625 41.4844C4.46001 41.4844 3.51563 40.54 3.51563 39.375C3.51563 38.21 4.46001 37.2656 5.625 37.2656C6.78999 37.2656 7.73438 38.21 7.73438 39.375C7.73438 40.54 6.78999 41.4844 5.625 41.4844ZM33.75 7.15887C33.75 10.8868 31.4675 12.9779 30.8253 15.4688H39.7658C42.7011 15.4688 44.9862 17.9074 44.9999 20.575C45.0073 22.1516 44.3367 23.8489 43.2914 24.899L43.2818 24.9087C44.1463 26.9598 44.0057 29.8338 42.4637 31.8932C43.2267 34.1692 42.4576 36.9649 41.0239 38.4637C41.4016 40.0104 41.2211 41.3267 40.4835 42.3864C38.6897 44.9637 34.2436 45 30.4839 45L30.2339 44.9999C25.9899 44.9984 22.5165 43.4532 19.7257 42.2116C18.3232 41.5877 16.4894 40.8153 15.0981 40.7897C14.5233 40.7792 14.0625 40.3101 14.0625 39.7352V20.9468C14.0625 20.6656 14.1752 20.3956 14.3752 20.1979C17.8569 16.7575 19.3541 13.115 22.2078 10.2565C23.5089 8.9529 23.9821 6.98379 24.4396 5.07955C24.8304 3.45349 25.648 0 27.4219 0C29.5313 0 33.75 0.703125 33.75 7.15887Z" fill="#663999"/>
</svg>
