<?xml version="1.0" encoding="utf-8"?>
<svg width="13" height="13" viewBox="0 0 13 13" xmlns="http://www.w3.org/2000/svg">
<path d="M0.947967 13H2.30213C2.82484 13 3.25005 12.5748 3.25005 12.0521V11.8538C4.06905 12.2709 5.92913 13 8.95434 13H9.82101C11.0771 13 12.1426 12.1019 12.356 10.8647L12.9627 7.34392C13.0916 6.59262 12.8841 5.82887 12.3945 5.24712C11.9048 4.66646 11.1876 4.33333 10.4277 4.33333H7.97068C8.12397 3.92167 8.27726 3.3215 8.27726 2.57292C8.27726 0.537873 7.12568 -1.90735e-06 6.51684 -1.90735e-06C5.39234 -1.90735e-06 5.29809 1.04867 5.29809 2.03125C5.29809 3.2305 3.95313 4.22717 3.24301 4.67025C3.20672 4.18058 2.80101 3.79167 2.30213 3.79167H0.947967C0.425259 3.79167 5.05447e-05 4.21687 5.05447e-05 4.73958V12.0521C5.05447e-05 12.5748 0.425259 13 0.947967 13ZM6.11059 2.03125C6.11059 0.812498 6.31697 0.812498 6.51684 0.812498C6.89818 0.812498 7.46476 1.28158 7.46476 2.57292C7.46476 3.77325 6.99459 4.50883 6.99134 4.51425C6.90847 4.63883 6.90034 4.79917 6.9713 4.93133C7.04172 5.0635 7.17984 5.14583 7.32934 5.14583H10.4277C10.9477 5.14583 11.4379 5.37333 11.7726 5.77037C12.1079 6.16796 12.2498 6.69121 12.1616 7.20525L11.5549 10.7261C11.4092 11.5732 10.6801 12.1875 9.82101 12.1875H8.95434C5.26938 12.1875 3.42338 11.0348 3.25005 10.9205V5.60679C3.70126 5.36737 6.11059 3.99696 6.11059 2.03125ZM0.812551 4.73958C0.812551 4.66483 0.873217 4.60417 0.947967 4.60417H2.30213C2.37688 4.60417 2.43755 4.66483 2.43755 4.73958V12.0521C2.43755 12.1257 2.3758 12.1875 2.30213 12.1875H0.947967C0.873217 12.1875 0.812551 12.1268 0.812551 12.0521V4.73958Z" fill="#59D0A5"/>
</svg>
