<svg width="18" height="18" viewBox="0 0 18 18" fill="none" xmlns="http://www.w3.org/2000/svg">
<path d="M14.9062 2.25H11.8125V1.6875C11.8125 0.75702 11.0555 0 10.125 0H7.875C6.94452 0 6.1875 0.75702 6.1875 1.6875V2.25H3.09375C2.31834 2.25 1.6875 2.88084 1.6875 3.65625V5.625C1.6875 5.93564 1.93936 6.1875 2.25 6.1875H2.55741L3.04337 16.3928C3.0863 17.294 3.82669 18 4.72894 18H13.2711C14.1733 18 14.9137 17.294 14.9566 16.3928L15.4426 6.1875H15.75C16.0606 6.1875 16.3125 5.93564 16.3125 5.625V3.65625C16.3125 2.88084 15.6817 2.25 14.9062 2.25ZM7.3125 1.6875C7.3125 1.37735 7.56485 1.125 7.875 1.125H10.125C10.4351 1.125 10.6875 1.37735 10.6875 1.6875V2.25H7.3125V1.6875ZM2.8125 3.65625C2.8125 3.50118 2.93868 3.375 3.09375 3.375H14.9062C15.0613 3.375 15.1875 3.50118 15.1875 3.65625V5.0625C15.0141 5.0625 3.53085 5.0625 2.8125 5.0625V3.65625ZM13.8329 16.3393C13.8186 16.6397 13.5718 16.875 13.2711 16.875H4.72894C4.42818 16.875 4.18138 16.6397 4.16711 16.3393L3.68367 6.1875H14.3163L13.8329 16.3393Z" fill="#5F5F5F"/>
<path d="M9 15.75C9.31064 15.75 9.5625 15.4981 9.5625 15.1875V7.875C9.5625 7.56436 9.31064 7.3125 9 7.3125C8.68936 7.3125 8.4375 7.56436 8.4375 7.875V15.1875C8.4375 15.4981 8.68932 15.75 9 15.75Z" fill="#5F5F5F"/>
<path d="M11.8125 15.75C12.1231 15.75 12.375 15.4981 12.375 15.1875V7.875C12.375 7.56436 12.1231 7.3125 11.8125 7.3125C11.5019 7.3125 11.25 7.56436 11.25 7.875V15.1875C11.25 15.4981 11.5018 15.75 11.8125 15.75Z" fill="#5F5F5F"/>
<path d="M6.1875 15.75C6.49814 15.75 6.75 15.4981 6.75 15.1875V7.875C6.75 7.56436 6.49814 7.3125 6.1875 7.3125C5.87686 7.3125 5.625 7.56436 5.625 7.875V15.1875C5.625 15.4981 5.87682 15.75 6.1875 15.75Z" fill="#5F5F5F"/>
</svg>
