<svg width="18" height="20" viewBox="0 0 18 20" fill="none" xmlns="http://www.w3.org/2000/svg">
<path d="M12.0151 9.27363C13.2948 8.34031 14.1282 6.82984 14.1282 5.1282C14.1282 2.30051 11.8277 0 8.99998 0C6.17228 0 3.87177 2.30051 3.87177 5.1282C3.87177 6.82984 4.70509 8.34031 5.98486 9.27363C2.80361 10.491 0.538452 13.5754 0.538452 17.1795C0.538452 18.7347 1.80373 20 3.35896 20H14.641C16.1962 20 17.4615 18.7347 17.4615 17.1795C17.4615 13.5754 15.1963 10.491 12.0151 9.27363ZM5.41025 5.1282C5.41025 3.14883 7.0206 1.53848 8.99998 1.53848C10.9794 1.53848 12.5897 3.14883 12.5897 5.1282C12.5897 7.10758 10.9794 8.71797 8.99998 8.71797C7.0206 8.71797 5.41025 7.10758 5.41025 5.1282ZM14.641 18.4615H3.35896C2.65205 18.4615 2.07693 17.8864 2.07693 17.1795C2.07693 13.362 5.18255 10.2564 9.00001 10.2564C12.8175 10.2564 15.9231 13.362 15.9231 17.1795C15.9231 17.8864 15.3479 18.4615 14.641 18.4615Z" fill="#59D0A5"/>
</svg>
