<svg width="20" height="20" viewBox="0 0 20 20" fill="none" xmlns="http://www.w3.org/2000/svg">
<path d="M12.9563 9.19284L12.8076 9.30126L12.9795 9.36703C16.1234 10.5701 18.3616 13.6183 18.3616 17.1795C18.3616 18.6795 17.1411 19.9 15.6411 19.9H4.35908C2.85908 19.9 1.63857 18.6795 1.63857 17.1795C1.63857 13.6183 3.87677 10.5701 7.02072 9.36703L7.19258 9.30126L7.04391 9.19284C5.78874 8.27746 4.97189 6.79643 4.97189 5.1282C4.97189 2.35574 7.22763 0.1 10.0001 0.1C12.7726 0.1 15.0283 2.35574 15.0283 5.1282C15.0283 6.79643 14.2114 8.27746 12.9563 9.19284ZM10.0001 1.43848C7.96549 1.43848 6.31037 3.0936 6.31037 5.1282C6.31037 7.16281 7.96549 8.81797 10.0001 8.81797C12.0347 8.81797 13.6898 7.16281 13.6898 5.1282C13.6898 3.0936 12.0347 1.43848 10.0001 1.43848ZM4.35908 18.5615H15.6411C16.4033 18.5615 17.0232 17.9416 17.0232 17.1795C17.0232 13.3068 13.8728 10.1564 10.0001 10.1564C6.12745 10.1564 2.97705 13.3068 2.97705 17.1795C2.97705 17.9416 3.59694 18.5615 4.35908 18.5615Z" fill="#59D0A5" stroke="white" stroke-width="0.2"/>
</svg>
